<?xml version="1.0" encoding="UTF-8"?>
<!DOCTYPE svg PUBLIC "-//W3C//DTD SVG 1.1//EN" "http://www.w3.org/Graphics/SVG/1.1/DTD/svg11.dtd">
<svg xmlns="http://www.w3.org/2000/svg" version="1.1" width="870px" height="870px" style="shape-rendering:geometricPrecision; text-rendering:geometricPrecision; image-rendering:optimizeQuality; fill-rule:evenodd; clip-rule:evenodd" xmlns:xlink="http://www.w3.org/1999/xlink">
<g><path style="opacity:1" fill="#4346a8" d="M -0.5,-0.5 C 289.5,-0.5 579.5,-0.5 869.5,-0.5C 869.5,289.5 869.5,579.5 869.5,869.5C 579.5,869.5 289.5,869.5 -0.5,869.5C -0.5,579.5 -0.5,289.5 -0.5,-0.5 Z"/></g>
<g><path style="opacity:1" fill="#000000" d="M 165.5,264.5 C 193.656,262.496 219.989,268.329 244.5,282C 265.409,297.962 277.576,319.129 281,345.5C 286.699,409.005 274.699,469.005 245,525.5C 223.796,562.204 192.963,586.871 152.5,599.5C 156,624.833 170.334,639.333 195.5,643C 209.803,644.15 223.969,643.317 238,640.5C 238.5,640.833 239,641.167 239.5,641.5C 236.016,657.088 232.849,672.754 230,688.5C 220.721,691.242 211.221,693.075 201.5,694C 180.323,697.536 159.323,696.87 138.5,692C 116.247,684.748 100.747,670.248 92,648.5C 86.1202,632.647 82.2868,616.314 80.5,599.5C 45.7968,592.628 23.2968,572.295 13,538.5C 1.34478,470.094 11.6781,405.094 44,343.5C 70.6786,296.001 111.179,269.668 165.5,264.5 Z"/></g>
<g><path style="opacity:1" fill="#000000" d="M 464.5,264.5 C 486.819,263.331 508.485,266.498 529.5,274C 556.289,286.131 572.789,306.631 579,335.5C 584.639,362.416 584.972,389.416 580,416.5C 574.56,457.488 561.56,495.821 541,531.5C 504.007,587.067 452.174,610.233 385.5,601C 345.123,593.957 320.29,570.457 311,530.5C 302.14,461.802 314.473,397.135 348,336.5C 375.215,293.804 414.049,269.804 464.5,264.5 Z"/></g>
<g><path style="opacity:1" fill="#000000" d="M 735.5,269.5 C 763.167,269.5 790.833,269.5 818.5,269.5C 833.166,379.163 847.833,488.83 862.5,598.5C 838.833,598.5 815.167,598.5 791.5,598.5C 789.442,571.466 787.108,544.466 784.5,517.5C 747.165,517.333 709.832,517.5 672.5,518C 660.106,544.788 647.44,571.455 634.5,598C 610.826,598.833 587.16,598.666 563.5,597.5C 620.846,488.14 678.179,378.807 735.5,269.5 Z"/></g>
<g><path style="opacity:1" fill="#4346a7" d="M 767.5,314.5 C 768.268,315.263 768.768,316.263 769,317.5C 769.852,336.175 770.852,354.841 772,373.5C 774.952,403.469 777.452,433.469 779.5,463.5C 752.492,463.833 725.492,463.5 698.5,462.5C 722.605,413.626 745.605,364.293 767.5,314.5 Z"/></g>
<g><path style="opacity:1" fill="#4346a8" d="M 160.5,320.5 C 191.025,319.851 207.525,334.851 210,365.5C 211.642,408.291 204.642,449.625 189,489.5C 181.686,508.132 170.519,523.965 155.5,537C 137.552,549.234 118.886,550.568 99.5,541C 90.2392,533.329 84.4059,523.495 82,511.5C 76.827,458.693 85.827,408.359 109,360.5C 117.965,344.2 130.799,332.033 147.5,324C 151.919,322.648 156.252,321.481 160.5,320.5 Z"/></g>
<g><path style="opacity:1" fill="#4346a8" d="M 460.5,320.5 C 491.025,319.851 507.525,334.851 510,365.5C 512.098,417.014 501.431,465.681 478,511.5C 470.061,525.439 458.895,535.939 444.5,543C 405.186,554.386 383.686,539.553 380,498.5C 378.585,450.161 388.252,404.161 409,360.5C 417.965,344.2 430.799,332.033 447.5,324C 451.919,322.648 456.252,321.481 460.5,320.5 Z"/></g>
</svg>
