<?xml version="1.0" encoding="UTF-8"?>
<!DOCTYPE svg PUBLIC "-//W3C//DTD SVG 1.1//EN" "http://www.w3.org/Graphics/SVG/1.1/DTD/svg11.dtd">
<svg xmlns="http://www.w3.org/2000/svg" version="1.1" width="2160px" height="2160px" style="shape-rendering:geometricPrecision; text-rendering:geometricPrecision; image-rendering:optimizeQuality; fill-rule:evenodd; clip-rule:evenodd" xmlns:xlink="http://www.w3.org/1999/xlink">
<g><path style="opacity:1" fill="#4346a8" d="M -0.5,-0.5 C 719.5,-0.5 1439.5,-0.5 2159.5,-0.5C 2159.5,719.5 2159.5,1439.5 2159.5,2159.5C 1439.5,2159.5 719.5,2159.5 -0.5,2159.5C -0.5,1439.5 -0.5,719.5 -0.5,-0.5 Z"/></g>
<g><path style="opacity:1" fill="#000000" d="M 644.5,771.5 C 669.746,771.024 694.746,773.191 719.5,778C 781.347,793.852 817.513,833.352 828,896.5C 835.442,953.101 832.108,1009.1 818,1064.5C 808.38,1107.7 793.046,1148.7 772,1187.5C 748.599,1228.9 716.432,1261.73 675.5,1286C 659.262,1294.62 642.262,1301.29 624.5,1306C 626.022,1333.38 638.355,1354.38 661.5,1369C 677.883,1376.2 695.05,1379.7 713,1379.5C 729.236,1378.44 745.403,1376.78 761.5,1374.5C 756.981,1400.45 751.981,1426.29 746.5,1452C 704.923,1461.74 662.923,1464.74 620.5,1461C 572.911,1453.07 540.745,1426.57 524,1381.5C 515.757,1358.12 510.257,1334.12 507.5,1309.5C 444.388,1295.22 406.888,1256.22 395,1192.5C 387.402,1142.63 388.736,1092.97 399,1043.5C 408.055,991.667 425.055,942.667 450,896.5C 493.036,821.215 557.869,779.548 644.5,771.5 Z"/></g>
<g><path style="opacity:1" fill="#000000" d="M 1141.5,771.5 C 1175.9,770.946 1208.57,778.113 1239.5,793C 1272.67,812.529 1294.17,841.029 1304,878.5C 1311.91,912.44 1314.24,946.773 1311,981.5C 1305.18,1052.62 1286.18,1119.95 1254,1183.5C 1197.13,1282.52 1111.63,1325.02 997.5,1311C 931.474,1299.98 890.974,1261.81 876,1196.5C 869.021,1161.73 867.687,1126.73 872,1091.5C 877.85,1033.9 892.184,978.562 915,925.5C 932.221,886.621 956.721,853.121 988.5,825C 1033.15,789.172 1084.15,771.339 1141.5,771.5 Z"/></g>
<g><path style="opacity:1" fill="#000000" d="M 1634.5,1178.5 C 1605.01,1177.17 1575.17,1176.5 1545,1176.5C 1515,1176.5 1485.16,1176.83 1455.5,1177.5C 1435.21,1220.08 1414.88,1262.74 1394.5,1305.5C 1356.5,1306.83 1318.5,1306.83 1280.5,1305.5C 1371.83,1130.5 1463.17,955.5 1554.5,780.5C 1599.5,779.5 1644.5,779.167 1689.5,779.5C 1712.06,955.142 1735.39,1130.64 1759.5,1306C 1721.17,1306.5 1682.83,1306.67 1644.5,1306.5C 1641.5,1263.81 1638.16,1221.14 1634.5,1178.5 Z"/></g>
<g><path style="opacity:1" fill="#4346a7" d="M 1607.5,850.5 C 1608.3,851.952 1608.8,853.618 1609,855.5C 1610.37,886.183 1612.04,916.849 1614,947.5C 1618.38,995.154 1622.54,1042.82 1626.5,1090.5C 1583.16,1090.83 1539.83,1090.5 1496.5,1089.5C 1525,1029.83 1553.5,970.167 1582,910.5C 1591.34,890.826 1599.84,870.826 1607.5,850.5 Z"/></g>
<g><path style="opacity:1" fill="#4346a8" d="M 638.5,861.5 C 673.434,859.029 696.934,874.029 709,906.5C 712.025,916.292 714.025,926.292 715,936.5C 717.156,1005.72 705.156,1072.39 679,1136.5C 668.162,1164.36 651.329,1187.86 628.5,1207C 606.435,1222.75 582.102,1227.75 555.5,1222C 536.519,1216.1 523.352,1203.93 516,1185.5C 511.089,1172.61 508.089,1159.28 507,1145.5C 505.147,1077.76 516.814,1012.43 542,949.5C 552.396,923.445 567.896,900.945 588.5,882C 603.282,870.438 619.949,863.605 638.5,861.5 Z"/></g>
<g><path style="opacity:1" fill="#4346a8" d="M 1118.5,861.5 C 1153.4,859.014 1176.9,874.014 1189,906.5C 1192.03,916.292 1194.03,926.292 1195,936.5C 1197.03,1005.68 1185.03,1072.34 1159,1136.5C 1150.69,1155.12 1140.36,1172.46 1128,1188.5C 1101.66,1219.5 1068.83,1230 1029.5,1220C 1008.65,1209.84 995.821,1193.34 991,1170.5C 989.125,1162.25 987.792,1153.92 987,1145.5C 985.222,1081.5 995.555,1019.5 1018,959.5C 1028.45,929.414 1045.28,903.58 1068.5,882C 1083.28,870.438 1099.95,863.605 1118.5,861.5 Z"/></g>
<g><path style="opacity:1" fill="#21235c" d="M 1455.5,1177.5 C 1485.16,1176.83 1515,1176.5 1545,1176.5C 1575.17,1176.5 1605.01,1177.17 1634.5,1178.5C 1574.9,1177.5 1515.24,1177.17 1455.5,1177.5 Z"/></g>
</svg>
