<?xml version="1.0" encoding="UTF-8"?>
<!DOCTYPE svg PUBLIC "-//W3C//DTD SVG 1.1//EN" "http://www.w3.org/Graphics/SVG/1.1/DTD/svg11.dtd">
<svg xmlns="http://www.w3.org/2000/svg" version="1.1" width="2160px" height="2160px" style="shape-rendering:geometricPrecision; text-rendering:geometricPrecision; image-rendering:optimizeQuality; fill-rule:evenodd; clip-rule:evenodd" xmlns:xlink="http://www.w3.org/1999/xlink">
<g><path style="opacity:1" fill="#4346a8" d="M -0.5,-0.5 C 719.5,-0.5 1439.5,-0.5 2159.5,-0.5C 2159.5,719.5 2159.5,1439.5 2159.5,2159.5C 1439.5,2159.5 719.5,2159.5 -0.5,2159.5C -0.5,1439.5 -0.5,719.5 -0.5,-0.5 Z"/></g>
<g><path style="opacity:1" fill="#000000" d="M 805.5,745.5 C 833.656,743.496 859.989,749.329 884.5,763C 905.409,778.962 917.576,800.129 921,826.5C 926.699,890.005 914.699,950.005 885,1006.5C 863.796,1043.2 832.963,1067.87 792.5,1080.5C 796,1105.83 810.334,1120.33 835.5,1124C 849.803,1125.15 863.969,1124.32 878,1121.5C 878.5,1121.83 879,1122.17 879.5,1122.5C 876.016,1138.09 872.849,1153.75 870,1169.5C 860.721,1172.24 851.221,1174.08 841.5,1175C 820.323,1178.54 799.323,1177.87 778.5,1173C 756.247,1165.75 740.747,1151.25 732,1129.5C 726.12,1113.65 722.287,1097.31 720.5,1080.5C 685.797,1073.63 663.297,1053.3 653,1019.5C 641.345,951.094 651.678,886.094 684,824.5C 710.679,777.001 751.179,750.668 805.5,745.5 Z"/></g>
<g><path style="opacity:1" fill="#000000" d="M 1104.5,745.5 C 1126.82,744.331 1148.49,747.498 1169.5,755C 1196.29,767.131 1212.79,787.631 1219,816.5C 1224.64,843.416 1224.97,870.416 1220,897.5C 1214.56,938.488 1201.56,976.821 1181,1012.5C 1149.29,1061.28 1104.12,1085.28 1045.5,1084.5C 986.598,1081.76 954.098,1051.1 948,992.5C 944.795,930.323 958.129,871.99 988,817.5C 1015.22,774.804 1054.05,750.804 1104.5,745.5 Z"/></g>
<g><path style="opacity:1" fill="#000000" d="M 1375.5,750.5 C 1403.17,750.5 1430.83,750.5 1458.5,750.5C 1473.17,860.163 1487.83,969.83 1502.5,1079.5C 1478.83,1079.5 1455.17,1079.5 1431.5,1079.5C 1429.44,1052.47 1427.11,1025.47 1424.5,998.5C 1387.17,998.333 1349.83,998.5 1312.5,999C 1300.11,1025.79 1287.44,1052.45 1274.5,1079C 1250.83,1079.83 1227.16,1079.67 1203.5,1078.5C 1260.85,969.14 1318.18,859.807 1375.5,750.5 Z"/></g>
<g><path style="opacity:1" fill="#4346a7" d="M 1407.5,795.5 C 1408.27,796.263 1408.77,797.263 1409,798.5C 1409.85,817.175 1410.85,835.841 1412,854.5C 1414.95,884.469 1417.45,914.469 1419.5,944.5C 1392.49,944.833 1365.49,944.5 1338.5,943.5C 1362.61,894.626 1385.61,845.293 1407.5,795.5 Z"/></g>
<g><path style="opacity:1" fill="#4346a8" d="M 800.5,801.5 C 831.025,800.851 847.525,815.851 850,846.5C 851.642,889.291 844.642,930.625 829,970.5C 821.686,989.132 810.519,1004.97 795.5,1018C 777.552,1030.23 758.886,1031.57 739.5,1022C 730.239,1014.33 724.406,1004.5 722,992.5C 716.827,939.693 725.827,889.359 749,841.5C 757.965,825.2 770.799,813.033 787.5,805C 791.919,803.648 796.252,802.481 800.5,801.5 Z"/></g>
<g><path style="opacity:1" fill="#4346a8" d="M 1100.5,801.5 C 1131.02,800.851 1147.52,815.851 1150,846.5C 1152.1,898.014 1141.43,946.681 1118,992.5C 1110.06,1006.44 1098.89,1016.94 1084.5,1024C 1045.19,1035.39 1023.69,1020.55 1020,979.5C 1018.59,931.161 1028.25,885.161 1049,841.5C 1057.97,825.2 1070.8,813.033 1087.5,805C 1091.92,803.648 1096.25,802.481 1100.5,801.5 Z"/></g>
<g><path style="opacity:1" fill="#000000" d="M 202.5,1376.5 C 208.5,1376.5 214.5,1376.5 220.5,1376.5C 218.765,1388.57 216.932,1400.57 215,1412.5C 222.226,1402.78 231.392,1399.94 242.5,1404C 246.259,1407.74 247.426,1412.24 246,1417.5C 244.165,1427.85 242.331,1438.18 240.5,1448.5C 244.241,1447.6 246.241,1448.93 246.5,1452.5C 239.833,1452.5 233.167,1452.5 226.5,1452.5C 228.607,1440.19 230.607,1427.86 232.5,1415.5C 231.616,1408.17 227.949,1406.67 221.5,1411C 218.628,1413.54 216.128,1416.37 214,1419.5C 211.512,1430.44 209.345,1441.44 207.5,1452.5C 203.167,1452.5 198.833,1452.5 194.5,1452.5C 198.5,1428.5 202.5,1404.5 206.5,1380.5C 202.509,1381.13 201.176,1379.79 202.5,1376.5 Z"/></g>
<g><path style="opacity:1" fill="#000000" d="M 1102.5,1376.5 C 1108.83,1376.5 1115.17,1376.5 1121.5,1376.5C 1116.85,1400.4 1112.85,1424.4 1109.5,1448.5C 1112.95,1447.76 1114.62,1449.09 1114.5,1452.5C 1107.83,1452.5 1101.17,1452.5 1094.5,1452.5C 1098.89,1428.56 1102.89,1404.56 1106.5,1380.5C 1103.5,1380.83 1102.17,1379.5 1102.5,1376.5 Z"/></g>
<g><path style="opacity:1" fill="#000002" d="M 1448.5,1376.5 C 1454.83,1376.5 1461.17,1376.5 1467.5,1376.5C 1466.2,1387.82 1464.2,1398.99 1461.5,1410C 1464.41,1407.48 1467.75,1405.14 1471.5,1403C 1484.35,1400.67 1490.68,1406.17 1490.5,1419.5C 1487.43,1449.55 1471.43,1459.72 1442.5,1450C 1441.98,1449.44 1441.64,1448.77 1441.5,1448C 1445.58,1425.51 1449.58,1403.01 1453.5,1380.5C 1450.05,1381.24 1448.38,1379.91 1448.5,1376.5 Z"/></g>
<g><path style="opacity:1" fill="#000000" d="M 1505.5,1376.5 C 1511.83,1376.5 1518.17,1376.5 1524.5,1376.5C 1519.85,1400.4 1515.85,1424.4 1512.5,1448.5C 1515.95,1447.76 1517.62,1449.09 1517.5,1452.5C 1510.83,1452.5 1504.17,1452.5 1497.5,1452.5C 1501.89,1428.56 1505.89,1404.56 1509.5,1380.5C 1506.5,1380.83 1505.17,1379.5 1505.5,1376.5 Z"/></g>
<g><path style="opacity:1" fill="#020105" d="M 975.5,1376.5 C 984.28,1376.78 987.446,1381.11 985,1389.5C 979.559,1393.93 974.892,1393.26 971,1387.5C 969.776,1382.63 971.276,1378.96 975.5,1376.5 Z"/></g>
<g><path style="opacity:1" fill="#000002" d="M 1182.5,1379.5 C 1186.5,1379.5 1190.5,1379.5 1194.5,1379.5C 1199.06,1401.81 1203.56,1424.14 1208,1446.5C 1209.58,1447.86 1211.42,1448.53 1213.5,1448.5C 1213.5,1449.83 1213.5,1451.17 1213.5,1452.5C 1203.83,1452.5 1194.17,1452.5 1184.5,1452.5C 1184.5,1451.17 1184.5,1449.83 1184.5,1448.5C 1187.21,1448.42 1189.87,1448.09 1192.5,1447.5C 1191.63,1441.14 1190.63,1434.81 1189.5,1428.5C 1180.48,1428.17 1171.48,1428.5 1162.5,1429.5C 1159.75,1435.32 1156.75,1440.99 1153.5,1446.5C 1155.97,1447.9 1158.64,1448.73 1161.5,1449C 1160.66,1450.01 1160.33,1451.18 1160.5,1452.5C 1153.83,1452.5 1147.17,1452.5 1140.5,1452.5C 1140.5,1451.17 1140.5,1449.83 1140.5,1448.5C 1142.94,1448.68 1145.1,1448.02 1147,1446.5C 1158.85,1424.14 1170.68,1401.81 1182.5,1379.5 Z"/></g>
<g><path style="opacity:1" fill="#000000" d="M 136.5,1380.5 C 155.833,1380.5 175.167,1380.5 194.5,1380.5C 193.5,1387.17 192.5,1393.83 191.5,1400.5C 190.167,1400.5 188.833,1400.5 187.5,1400.5C 187.5,1395.83 187.5,1391.17 187.5,1386.5C 182.25,1385.85 177.083,1385.85 172,1386.5C 168.282,1406.81 164.782,1427.14 161.5,1447.5C 165.119,1448.24 168.785,1448.58 172.5,1448.5C 172.67,1449.82 172.337,1450.99 171.5,1452C 158.833,1452.67 146.167,1452.67 133.5,1452C 134.337,1450.99 134.67,1449.82 134.5,1448.5C 138.5,1448.17 142.5,1447.83 146.5,1447.5C 150.05,1426.87 153.383,1406.2 156.5,1385.5C 151.155,1385.69 145.822,1386.02 140.5,1386.5C 139.497,1391.17 138.497,1395.84 137.5,1400.5C 136.167,1400.5 134.833,1400.5 133.5,1400.5C 134.067,1393.76 135.067,1387.1 136.5,1380.5 Z"/></g>
<g><path style="opacity:1" fill="#000002" d="M 368.5,1379.5 C 394.221,1378.06 406.388,1390.06 405,1415.5C 403.193,1432.79 394.359,1444.79 378.5,1451.5C 382.388,1459.91 388.722,1465.08 397.5,1467C 380.966,1474.37 368.966,1469.87 361.5,1453.5C 343.394,1451.49 334.06,1441.32 333.5,1423C 334.417,1399.61 346.083,1385.11 368.5,1379.5 Z"/></g>
<g><path style="opacity:1" fill="#000002" d="M 830.5,1379.5 C 856.221,1378.06 868.388,1390.06 867,1415.5C 863.2,1440.33 848.7,1453 823.5,1453.5C 806.005,1450.84 796.671,1440.67 795.5,1423C 796.417,1399.61 808.083,1385.11 830.5,1379.5 Z"/></g>
<g><path style="opacity:1" fill="#000000" d="M 1628.5,1442.5 C 1627.55,1443.92 1627.22,1445.59 1627.5,1447.5C 1633.36,1447.82 1639.02,1447.49 1644.5,1446.5C 1647.83,1446.5 1651.17,1446.5 1654.5,1446.5C 1656.22,1441.5 1658.06,1436.5 1660,1431.5C 1661.39,1430.45 1662.89,1430.28 1664.5,1431C 1662.9,1437.82 1661.23,1444.66 1659.5,1451.5C 1640.51,1452.5 1621.51,1452.83 1602.5,1452.5C 1602.5,1451.17 1602.5,1449.83 1602.5,1448.5C 1605.86,1448.38 1609.19,1448.05 1612.5,1447.5C 1616.05,1426.87 1619.38,1406.2 1622.5,1385.5C 1619.83,1385.17 1617.17,1384.83 1614.5,1384.5C 1614.5,1383.17 1614.5,1381.83 1614.5,1380.5C 1626.17,1380.5 1637.83,1380.5 1649.5,1380.5C 1649.5,1381.83 1649.5,1383.17 1649.5,1384.5C 1645.45,1384.15 1641.62,1384.82 1638,1386.5C 1634.51,1405.12 1631.34,1423.79 1628.5,1442.5 Z"/></g>
<g><path style="opacity:1" fill="#4245a6" d="M 371.5,1384.5 C 380.667,1384.33 386.5,1388.67 389,1397.5C 391.642,1413.59 388.309,1428.26 379,1441.5C 369.414,1451.1 360.414,1450.76 352,1440.5C 346.249,1420.58 350.416,1403.08 364.5,1388C 366.925,1386.79 369.259,1385.62 371.5,1384.5 Z"/></g>
<g><path style="opacity:1" fill="#4245a6" d="M 833.5,1384.5 C 842.667,1384.33 848.5,1388.67 851,1397.5C 853.752,1414.16 850.085,1429.16 840,1442.5C 830.487,1451.04 821.821,1450.37 814,1440.5C 808.249,1420.58 812.416,1403.08 826.5,1388C 828.925,1386.79 831.259,1385.62 833.5,1384.5 Z"/></g>
<g><path style="opacity:1" fill="#000002" d="M 618.5,1404.5 C 617.596,1405.21 617.263,1406.21 617.5,1407.5C 614.5,1407.5 611.5,1407.5 608.5,1407.5C 608.5,1408.83 608.5,1410.17 608.5,1411.5C 605.762,1422.35 604.262,1433.35 604,1444.5C 607.101,1446.72 610.435,1447.05 614,1445.5C 614.5,1446.5 615,1447.5 615.5,1448.5C 609.695,1452.14 603.362,1453.64 596.5,1453C 591.707,1450.88 589.373,1447.21 589.5,1442C 591.309,1430.46 593.309,1418.96 595.5,1407.5C 593.5,1407.5 591.5,1407.5 589.5,1407.5C 589.5,1406.5 589.5,1405.5 589.5,1404.5C 591.927,1404.48 594.26,1403.98 596.5,1403C 599.553,1399.61 602.22,1395.95 604.5,1392C 606.81,1391.5 609.143,1391.34 611.5,1391.5C 611.058,1395.15 610.724,1398.82 610.5,1402.5C 613.698,1401.96 616.365,1402.63 618.5,1404.5 Z"/></g>
<g><path style="opacity:1" fill="#000002" d="M 958.5,1404.5 C 957.596,1405.21 957.263,1406.21 957.5,1407.5C 954.5,1407.5 951.5,1407.5 948.5,1407.5C 948.5,1408.83 948.5,1410.17 948.5,1411.5C 945.762,1422.35 944.262,1433.35 944,1444.5C 947.101,1446.72 950.435,1447.05 954,1445.5C 954.5,1446.5 955,1447.5 955.5,1448.5C 949.695,1452.14 943.362,1453.64 936.5,1453C 931.707,1450.88 929.373,1447.21 929.5,1442C 931.309,1430.46 933.309,1418.96 935.5,1407.5C 933.5,1407.5 931.5,1407.5 929.5,1407.5C 929.5,1406.5 929.5,1405.5 929.5,1404.5C 931.927,1404.48 934.26,1403.98 936.5,1403C 939.553,1399.61 942.22,1395.95 944.5,1392C 946.81,1391.5 949.143,1391.34 951.5,1391.5C 951.058,1395.15 950.724,1398.82 950.5,1402.5C 953.698,1401.96 956.365,1402.63 958.5,1404.5 Z"/></g>
<g><path style="opacity:1" fill="#4143a2" d="M 1181.5,1392.5 C 1182.65,1392.79 1183.32,1393.62 1183.5,1395C 1184.9,1403.9 1186.57,1412.73 1188.5,1421.5C 1181.19,1422.66 1173.86,1422.83 1166.5,1422C 1171.65,1412.19 1176.65,1402.36 1181.5,1392.5 Z"/></g>
<g><path style="opacity:1" fill="#000001" d="M 496.5,1401.5 C 502.347,1402 508.18,1402.67 514,1403.5C 516.092,1403.12 518.092,1402.45 520,1401.5C 520.5,1401.83 521,1402.17 521.5,1402.5C 518.402,1417.76 515.735,1433.09 513.5,1448.5C 515.564,1448.69 517.564,1449.19 519.5,1450C 519.043,1450.41 518.709,1450.91 518.5,1451.5C 512.537,1452.5 506.537,1452.83 500.5,1452.5C 500.808,1450.08 500.474,1447.74 499.5,1445.5C 491.36,1454.45 482.86,1455.12 474,1447.5C 467.387,1425.06 474.887,1409.73 496.5,1401.5 Z"/></g>
<g><path style="opacity:1" fill="#000001" d="M 1063.5,1401.5 C 1069.35,1402 1075.18,1402.67 1081,1403.5C 1083.09,1403.12 1085.09,1402.45 1087,1401.5C 1087.5,1401.83 1088,1402.17 1088.5,1402.5C 1085.4,1417.76 1082.74,1433.09 1080.5,1448.5C 1082.56,1448.69 1084.56,1449.19 1086.5,1450C 1086.04,1450.41 1085.71,1450.91 1085.5,1451.5C 1079.54,1452.5 1073.54,1452.83 1067.5,1452.5C 1067.81,1450.08 1067.47,1447.74 1066.5,1445.5C 1058.36,1454.45 1049.86,1455.12 1041,1447.5C 1034.39,1425.06 1041.89,1409.73 1063.5,1401.5 Z"/></g>
<g><path style="opacity:1" fill="#000001" d="M 1696.5,1401.5 C 1702.35,1402 1708.18,1402.67 1714,1403.5C 1716.09,1403.12 1718.09,1402.45 1720,1401.5C 1720.5,1401.83 1721,1402.17 1721.5,1402.5C 1718.4,1417.76 1715.74,1433.09 1713.5,1448.5C 1715.56,1448.69 1717.56,1449.19 1719.5,1450C 1719.04,1450.41 1718.71,1450.91 1718.5,1451.5C 1712.54,1452.5 1706.54,1452.83 1700.5,1452.5C 1700.81,1450.08 1700.47,1447.74 1699.5,1445.5C 1691.36,1454.45 1682.86,1455.12 1674,1447.5C 1667.39,1425.06 1674.89,1409.73 1696.5,1401.5 Z"/></g>
<g><path style="opacity:1" fill="#000001" d="M 1928.5,1401.5 C 1934.35,1402 1940.18,1402.67 1946,1403.5C 1948.09,1403.12 1950.09,1402.45 1952,1401.5C 1952.5,1401.83 1953,1402.17 1953.5,1402.5C 1950.4,1417.76 1947.74,1433.09 1945.5,1448.5C 1947.56,1448.69 1949.56,1449.19 1951.5,1450C 1951.04,1450.41 1950.71,1450.91 1950.5,1451.5C 1944.54,1452.5 1938.54,1452.83 1932.5,1452.5C 1932.81,1450.08 1932.47,1447.74 1931.5,1445.5C 1923.36,1454.45 1914.86,1455.12 1906,1447.5C 1899.39,1425.06 1906.89,1409.73 1928.5,1401.5 Z"/></g>
<g><path style="opacity:1" fill="#000002" d="M 281.5,1401.5 C 288.567,1401.12 294.067,1403.78 298,1409.5C 297.604,1419.91 292.104,1426.08 281.5,1428C 277.886,1428.94 274.219,1429.61 270.5,1430C 267.333,1439.17 270.333,1445 279.5,1447.5C 284.236,1446.81 288.57,1445.14 292.5,1442.5C 293.5,1442.83 294.167,1443.5 294.5,1444.5C 289.923,1449.32 284.256,1452.15 277.5,1453C 263.865,1454.53 256.532,1448.53 255.5,1435C 255.896,1417.13 264.563,1405.97 281.5,1401.5 Z"/></g>
<g><path style="opacity:1" fill="#000002" d="M 413.5,1402.5 C 420.167,1402.5 426.833,1402.5 433.5,1402.5C 430.247,1416.34 428.414,1430.34 428,1444.5C 432.146,1447.18 435.979,1446.68 439.5,1443C 442.433,1440.74 444.6,1437.9 446,1434.5C 448.59,1423.96 450.424,1413.29 451.5,1402.5C 456.167,1402.5 460.833,1402.5 465.5,1402.5C 462.962,1417.86 460.295,1433.19 457.5,1448.5C 461.241,1447.6 463.241,1448.93 463.5,1452.5C 457.167,1452.5 450.833,1452.5 444.5,1452.5C 444.665,1449.48 444.498,1446.48 444,1443.5C 435.68,1453.17 426.013,1455.17 415,1449.5C 413.964,1447.13 413.464,1444.63 413.5,1442C 415.234,1430.17 416.901,1418.33 418.5,1406.5C 415.05,1407.24 413.384,1405.91 413.5,1402.5 Z"/></g>
<g><path style="opacity:1" fill="#000001" d="M 564.5,1401.5 C 576.45,1400.53 581.284,1405.87 579,1417.5C 577.228,1427.86 575.395,1438.19 573.5,1448.5C 577.241,1447.6 579.241,1448.93 579.5,1452.5C 572.833,1452.5 566.167,1452.5 559.5,1452.5C 561.692,1440.37 563.692,1428.2 565.5,1416C 564.96,1408.25 561.294,1406.59 554.5,1411C 550.509,1413.99 547.676,1417.82 546,1422.5C 544.38,1432.22 542.547,1441.89 540.5,1451.5C 536.217,1452.49 531.884,1452.83 527.5,1452.5C 530.021,1437.19 532.354,1421.85 534.5,1406.5C 531.5,1406.83 530.167,1405.5 530.5,1402.5C 536.537,1402.17 542.537,1402.5 548.5,1403.5C 545.945,1413.34 547.612,1414.51 553.5,1407C 557.017,1404.67 560.683,1402.84 564.5,1401.5 Z"/></g>
<g><path style="opacity:1" fill="#000002" d="M 621.5,1402.5 C 628.167,1402.5 634.833,1402.5 641.5,1402.5C 638.247,1416.34 636.414,1430.34 636,1444.5C 640.146,1447.18 643.979,1446.68 647.5,1443C 650.433,1440.74 652.6,1437.9 654,1434.5C 656.59,1423.96 658.424,1413.29 659.5,1402.5C 664.167,1402.5 668.833,1402.5 673.5,1402.5C 670.962,1417.86 668.295,1433.19 665.5,1448.5C 669.241,1447.6 671.241,1448.93 671.5,1452.5C 665.167,1452.5 658.833,1452.5 652.5,1452.5C 652.665,1449.48 652.498,1446.48 652,1443.5C 643.68,1453.17 634.013,1455.17 623,1449.5C 621.964,1447.13 621.464,1444.63 621.5,1442C 623.234,1430.17 624.901,1418.33 626.5,1406.5C 623.05,1407.24 621.384,1405.91 621.5,1402.5 Z"/></g>
<g><path style="opacity:1" fill="#000001" d="M 715.5,1401.5 C 723.658,1400.81 728.158,1404.48 729,1412.5C 733.05,1406.61 738.55,1402.94 745.5,1401.5C 752.471,1401.64 756.471,1405.14 757.5,1412C 755.174,1424.13 753.174,1436.29 751.5,1448.5C 753.655,1448.37 755.655,1448.87 757.5,1450C 757.043,1450.41 756.709,1450.91 756.5,1451.5C 749.858,1452.66 743.192,1452.83 736.5,1452C 739.082,1439.75 741.415,1427.42 743.5,1415C 743.275,1409.23 740.608,1407.56 735.5,1410C 732.96,1412.2 730.793,1414.7 729,1417.5C 725.756,1428.96 723.589,1440.63 722.5,1452.5C 717.833,1452.5 713.167,1452.5 708.5,1452.5C 710.769,1440.39 712.769,1428.22 714.5,1416C 714.333,1414.17 714.167,1412.33 714,1410.5C 713.261,1409.43 712.261,1408.76 711,1408.5C 705.287,1411.21 701.287,1415.55 699,1421.5C 697.165,1431.85 695.331,1442.18 693.5,1452.5C 689.167,1452.5 684.833,1452.5 680.5,1452.5C 683.05,1437.2 685.383,1421.87 687.5,1406.5C 684.5,1406.83 683.167,1405.5 683.5,1402.5C 689.167,1402.5 694.833,1402.5 700.5,1402.5C 700.183,1405.57 700.516,1408.57 701.5,1411.5C 705.21,1406.66 709.876,1403.33 715.5,1401.5 Z"/></g>
<g><path style="opacity:1" fill="#000001" d="M 904.5,1401.5 C 912.415,1400.87 917.915,1404.21 921,1411.5C 923.611,1426.33 919.445,1438.83 908.5,1449C 901.064,1453.33 893.397,1454.17 885.5,1451.5C 884.833,1458.17 884.167,1464.83 883.5,1471.5C 886.206,1471.58 888.873,1471.91 891.5,1472.5C 891.5,1473.5 891.5,1474.5 891.5,1475.5C 882.167,1475.5 872.833,1475.5 863.5,1475.5C 864.031,1472.22 866.031,1470.89 869.5,1471.5C 873.275,1449.85 876.941,1428.19 880.5,1406.5C 877.412,1406.8 875.746,1405.47 875.5,1402.5C 881.5,1402.5 887.5,1402.5 893.5,1402.5C 893.336,1405.19 893.503,1407.85 894,1410.5C 897.103,1406.89 900.603,1403.89 904.5,1401.5 Z"/></g>
<g><path style="opacity:1" fill="#000000" d="M 963.5,1402.5 C 969.842,1402.33 976.175,1402.5 982.5,1403C 979.352,1418.05 976.685,1433.22 974.5,1448.5C 977.969,1447.89 979.969,1449.22 980.5,1452.5C 973.468,1452.83 966.468,1452.5 959.5,1451.5C 962.706,1436.6 965.372,1421.6 967.5,1406.5C 964.5,1406.83 963.167,1405.5 963.5,1402.5 Z"/></g>
<g><path style="opacity:1" fill="#000002" d="M 1016.5,1401.5 C 1020.8,1402.13 1025.14,1402.63 1029.5,1403C 1031.38,1403.22 1033.05,1403.88 1034.5,1405C 1033.4,1409.07 1032.57,1413.24 1032,1417.5C 1031.29,1418.97 1030.12,1419.64 1028.5,1419.5C 1030.03,1409.86 1026.03,1405.69 1016.5,1407C 1009.25,1410.97 1005.09,1417.13 1004,1425.5C 1003.33,1430.5 1003.33,1435.5 1004,1440.5C 1005.59,1444.89 1008.76,1447.22 1013.5,1447.5C 1018.06,1446.81 1022.22,1445.14 1026,1442.5C 1028.83,1443.92 1028.99,1445.42 1026.5,1447C 1016.9,1453.5 1006.9,1454.5 996.5,1450C 990.247,1444.17 988.08,1437 990,1428.5C 992.818,1413.39 1001.65,1404.39 1016.5,1401.5 Z"/></g>
<g><path style="opacity:1" fill="#010004" d="M 1237.5,1401.5 C 1243.17,1401.87 1248.84,1402.37 1254.5,1403C 1255.62,1403.25 1256.62,1403.75 1257.5,1404.5C 1256.4,1408.42 1255.74,1412.42 1255.5,1416.5C 1254.5,1416.5 1253.5,1416.5 1252.5,1416.5C 1251.94,1407.7 1247.27,1404.53 1238.5,1407C 1233.17,1411 1233.17,1415 1238.5,1419C 1245.55,1421.73 1251.05,1426.23 1255,1432.5C 1256.38,1439.71 1254.21,1445.54 1248.5,1450C 1238.97,1454.07 1229.31,1454.4 1219.5,1451C 1218.94,1450.28 1218.61,1449.44 1218.5,1448.5C 1219.26,1444.5 1219.93,1440.5 1220.5,1436.5C 1221.5,1436.5 1222.5,1436.5 1223.5,1436.5C 1223.67,1446.5 1228.67,1450.33 1238.5,1448C 1243.82,1445.55 1245.32,1441.71 1243,1436.5C 1238.75,1433.29 1234.25,1430.46 1229.5,1428C 1224.34,1422.28 1223.17,1415.78 1226,1408.5C 1229.21,1404.98 1233.05,1402.65 1237.5,1401.5 Z"/></g>
<g><path style="opacity:1" fill="#010004" d="M 1280.5,1401.5 C 1286.17,1401.87 1291.84,1402.37 1297.5,1403C 1298.62,1403.25 1299.62,1403.75 1300.5,1404.5C 1299.4,1408.42 1298.74,1412.42 1298.5,1416.5C 1297.5,1416.5 1296.5,1416.5 1295.5,1416.5C 1294.94,1407.7 1290.27,1404.53 1281.5,1407C 1276.17,1411 1276.17,1415 1281.5,1419C 1288.55,1421.73 1294.05,1426.23 1298,1432.5C 1299.38,1439.71 1297.21,1445.54 1291.5,1450C 1281.97,1454.07 1272.31,1454.4 1262.5,1451C 1261.94,1450.28 1261.61,1449.44 1261.5,1448.5C 1262.26,1444.5 1262.93,1440.5 1263.5,1436.5C 1264.5,1436.5 1265.5,1436.5 1266.5,1436.5C 1266.67,1446.5 1271.67,1450.33 1281.5,1448C 1286.82,1445.55 1288.32,1441.71 1286,1436.5C 1281.75,1433.29 1277.25,1430.46 1272.5,1428C 1267.34,1422.28 1266.17,1415.78 1269,1408.5C 1272.21,1404.98 1276.05,1402.65 1280.5,1401.5 Z"/></g>
<g><path style="opacity:1" fill="#000002" d="M 1333.5,1401.5 C 1340.57,1401.12 1346.07,1403.78 1350,1409.5C 1349.6,1419.91 1344.1,1426.08 1333.5,1428C 1329.89,1428.94 1326.22,1429.61 1322.5,1430C 1319.33,1439.17 1322.33,1445 1331.5,1447.5C 1336.24,1446.81 1340.57,1445.14 1344.5,1442.5C 1345.5,1442.83 1346.17,1443.5 1346.5,1444.5C 1341.92,1449.32 1336.26,1452.15 1329.5,1453C 1315.87,1454.53 1308.53,1448.53 1307.5,1435C 1307.9,1417.13 1316.56,1405.97 1333.5,1401.5 Z"/></g>
<g><path style="opacity:1" fill="#000001" d="M 1391.5,1401.5 C 1399.66,1400.81 1404.16,1404.48 1405,1412.5C 1409.05,1406.61 1414.55,1402.94 1421.5,1401.5C 1428.47,1401.64 1432.47,1405.14 1433.5,1412C 1431.17,1424.13 1429.17,1436.29 1427.5,1448.5C 1429.65,1448.37 1431.65,1448.87 1433.5,1450C 1433.04,1450.41 1432.71,1450.91 1432.5,1451.5C 1425.86,1452.66 1419.19,1452.83 1412.5,1452C 1415.08,1439.75 1417.42,1427.42 1419.5,1415C 1419.27,1409.23 1416.61,1407.56 1411.5,1410C 1408.96,1412.2 1406.79,1414.7 1405,1417.5C 1401.76,1428.96 1399.59,1440.63 1398.5,1452.5C 1393.83,1452.5 1389.17,1452.5 1384.5,1452.5C 1386.77,1440.39 1388.77,1428.22 1390.5,1416C 1390.33,1414.17 1390.17,1412.33 1390,1410.5C 1389.26,1409.43 1388.26,1408.76 1387,1408.5C 1381.29,1411.21 1377.29,1415.55 1375,1421.5C 1373.16,1431.85 1371.33,1442.18 1369.5,1452.5C 1365.17,1452.5 1360.83,1452.5 1356.5,1452.5C 1359.05,1437.2 1361.38,1421.87 1363.5,1406.5C 1360.5,1406.83 1359.17,1405.5 1359.5,1402.5C 1365.17,1402.5 1370.83,1402.5 1376.5,1402.5C 1376.18,1405.57 1376.52,1408.57 1377.5,1411.5C 1381.21,1406.66 1385.88,1403.33 1391.5,1401.5 Z"/></g>
<g><path style="opacity:1" fill="#000002" d="M 1527.5,1402.5 C 1532.83,1402.5 1538.17,1402.5 1543.5,1402.5C 1545.89,1413.95 1548.72,1425.28 1552,1436.5C 1557.11,1429.29 1561.44,1421.62 1565,1413.5C 1566.33,1409.51 1565,1406.85 1561,1405.5C 1560.52,1404.55 1560.35,1403.55 1560.5,1402.5C 1564.88,1402.17 1569.22,1402.51 1573.5,1403.5C 1574.36,1406.15 1574.2,1408.81 1573,1411.5C 1562.4,1429.76 1551.4,1447.76 1540,1465.5C 1534.24,1473.97 1526.4,1477.3 1516.5,1475.5C 1516.17,1474.5 1515.83,1473.5 1515.5,1472.5C 1516.21,1469.2 1516.54,1465.87 1516.5,1462.5C 1517.5,1462.5 1518.5,1462.5 1519.5,1462.5C 1519.78,1465.12 1520.45,1467.62 1521.5,1470C 1523.5,1470.67 1525.5,1470.67 1527.5,1470C 1535.44,1464.78 1539.94,1457.61 1541,1448.5C 1537.5,1434.48 1534,1420.48 1530.5,1406.5C 1529.5,1406.5 1528.5,1406.5 1527.5,1406.5C 1527.5,1405.17 1527.5,1403.83 1527.5,1402.5 Z"/></g>
<g><path style="opacity:1" fill="#000001" d="M 1764.5,1401.5 C 1776.45,1400.53 1781.28,1405.87 1779,1417.5C 1777.23,1427.86 1775.39,1438.19 1773.5,1448.5C 1777.24,1447.6 1779.24,1448.93 1779.5,1452.5C 1772.83,1452.5 1766.17,1452.5 1759.5,1452.5C 1761.69,1440.37 1763.69,1428.2 1765.5,1416C 1764.96,1408.25 1761.29,1406.59 1754.5,1411C 1750.51,1413.99 1747.68,1417.82 1746,1422.5C 1744.38,1432.22 1742.55,1441.89 1740.5,1451.5C 1736.22,1452.49 1731.88,1452.83 1727.5,1452.5C 1730.02,1437.19 1732.35,1421.85 1734.5,1406.5C 1731.5,1406.83 1730.17,1405.5 1730.5,1402.5C 1736.54,1402.17 1742.54,1402.5 1748.5,1403.5C 1745.95,1413.34 1747.61,1414.51 1753.5,1407C 1757.02,1404.67 1760.68,1402.84 1764.5,1401.5 Z"/></g>
<g><path style="opacity:1" fill="#000001" d="M 1813.5,1401.5 C 1821.15,1402.33 1828.81,1403 1836.5,1403.5C 1834.1,1420.56 1831.27,1437.56 1828,1454.5C 1825.27,1469.72 1816.1,1477.06 1800.5,1476.5C 1794.5,1476.05 1788.83,1474.55 1783.5,1472C 1784.46,1467.93 1784.8,1463.77 1784.5,1459.5C 1785.5,1459.5 1786.5,1459.5 1787.5,1459.5C 1787.47,1464.61 1789.8,1468.11 1794.5,1470C 1798.5,1470.67 1802.5,1470.67 1806.5,1470C 1809,1468.83 1810.83,1467 1812,1464.5C 1813.99,1457.9 1815.32,1451.23 1816,1444.5C 1811.99,1449.84 1806.65,1452.84 1800,1453.5C 1791.03,1450.76 1786.86,1444.59 1787.5,1435C 1787.48,1422.37 1792.48,1412.37 1802.5,1405C 1806.16,1403.41 1809.83,1402.24 1813.5,1401.5 Z"/></g>
<g><path style="opacity:1" fill="#000002" d="M 1845.5,1402.5 C 1852.17,1402.5 1858.83,1402.5 1865.5,1402.5C 1862.25,1416.34 1860.41,1430.34 1860,1444.5C 1864.15,1447.18 1867.98,1446.68 1871.5,1443C 1874.43,1440.74 1876.6,1437.9 1878,1434.5C 1880.59,1423.96 1882.42,1413.29 1883.5,1402.5C 1888.17,1402.5 1892.83,1402.5 1897.5,1402.5C 1894.96,1417.86 1892.3,1433.19 1889.5,1448.5C 1893.24,1447.6 1895.24,1448.93 1895.5,1452.5C 1889.17,1452.5 1882.83,1452.5 1876.5,1452.5C 1876.66,1449.48 1876.5,1446.48 1876,1443.5C 1867.68,1453.17 1858.01,1455.17 1847,1449.5C 1845.96,1447.13 1845.46,1444.63 1845.5,1442C 1847.23,1430.17 1848.9,1418.33 1850.5,1406.5C 1847.05,1407.24 1845.38,1405.91 1845.5,1402.5 Z"/></g>
<g><path style="opacity:1" fill="#000001" d="M 1984.5,1401.5 C 1992.15,1402.33 1999.81,1403 2007.5,1403.5C 2005.1,1420.56 2002.27,1437.56 1999,1454.5C 1996.27,1469.72 1987.1,1477.06 1971.5,1476.5C 1965.5,1476.05 1959.83,1474.55 1954.5,1472C 1955.46,1467.93 1955.8,1463.77 1955.5,1459.5C 1956.5,1459.5 1957.5,1459.5 1958.5,1459.5C 1958.47,1464.61 1960.8,1468.11 1965.5,1470C 1969.5,1470.67 1973.5,1470.67 1977.5,1470C 1980,1468.83 1981.83,1467 1983,1464.5C 1984.99,1457.9 1986.32,1451.23 1987,1444.5C 1982.99,1449.84 1977.65,1452.84 1971,1453.5C 1962.03,1450.76 1957.86,1444.59 1958.5,1435C 1958.48,1422.37 1963.48,1412.37 1973.5,1405C 1977.16,1403.41 1980.83,1402.24 1984.5,1401.5 Z"/></g>
<g><path style="opacity:1" fill="#000002" d="M 2040.5,1401.5 C 2047.57,1401.12 2053.07,1403.78 2057,1409.5C 2056.6,1419.91 2051.1,1426.08 2040.5,1428C 2036.89,1428.94 2033.22,1429.61 2029.5,1430C 2026.33,1439.17 2029.33,1445 2038.5,1447.5C 2043.24,1446.81 2047.57,1445.14 2051.5,1442.5C 2052.5,1442.83 2053.17,1443.5 2053.5,1444.5C 2048.92,1449.32 2043.26,1452.15 2036.5,1453C 2022.87,1454.53 2015.53,1448.53 2014.5,1435C 2014.9,1417.13 2023.56,1405.97 2040.5,1401.5 Z"/></g>
<g><path style="opacity:1" fill="#3e419d" d="M 278.5,1407.5 C 285.913,1406.74 288.08,1409.74 285,1416.5C 281.683,1421.91 276.85,1424.91 270.5,1425.5C 271.049,1418.5 273.716,1412.5 278.5,1407.5 Z"/></g>
<g><path style="opacity:1" fill="#4144a2" d="M 496.5,1406.5 C 498.857,1406.34 501.19,1406.5 503.5,1407C 505.41,1407.41 506.41,1408.57 506.5,1410.5C 504.892,1418.48 503.392,1426.48 502,1434.5C 500.637,1442.21 496.137,1445.71 488.5,1445C 486.683,1443.2 485.516,1441.03 485,1438.5C 483.801,1429.29 485.467,1420.63 490,1412.5C 492.063,1410.27 494.229,1408.27 496.5,1406.5 Z"/></g>
<g><path style="opacity:1" fill="#2a2c70" d="M 618.5,1404.5 C 618.5,1405.83 618.5,1407.17 618.5,1408.5C 615.5,1408.5 612.5,1408.5 609.5,1408.5C 609.737,1409.79 609.404,1410.79 608.5,1411.5C 608.5,1410.17 608.5,1408.83 608.5,1407.5C 611.5,1407.5 614.5,1407.5 617.5,1407.5C 617.263,1406.21 617.596,1405.21 618.5,1404.5 Z"/></g>
<g><path style="opacity:1" fill="#2a2c70" d="M 958.5,1404.5 C 958.5,1405.83 958.5,1407.17 958.5,1408.5C 955.5,1408.5 952.5,1408.5 949.5,1408.5C 949.737,1409.79 949.404,1410.79 948.5,1411.5C 948.5,1410.17 948.5,1408.83 948.5,1407.5C 951.5,1407.5 954.5,1407.5 957.5,1407.5C 957.263,1406.21 957.596,1405.21 958.5,1404.5 Z"/></g>
<g><path style="opacity:1" fill="#4144a2" d="M 1063.5,1406.5 C 1065.86,1406.34 1068.19,1406.5 1070.5,1407C 1072.41,1407.41 1073.41,1408.57 1073.5,1410.5C 1071.89,1418.48 1070.39,1426.48 1069,1434.5C 1067.64,1442.21 1063.14,1445.71 1055.5,1445C 1053.68,1443.2 1052.52,1441.03 1052,1438.5C 1050.8,1429.29 1052.47,1420.63 1057,1412.5C 1059.06,1410.27 1061.23,1408.27 1063.5,1406.5 Z"/></g>
<g><path style="opacity:1" fill="#3e419d" d="M 1330.5,1407.5 C 1337.91,1406.74 1340.08,1409.74 1337,1416.5C 1333.68,1421.91 1328.85,1424.91 1322.5,1425.5C 1323.05,1418.5 1325.72,1412.5 1330.5,1407.5 Z"/></g>
<g><path style="opacity:1" fill="#4144a2" d="M 1696.5,1406.5 C 1698.86,1406.34 1701.19,1406.5 1703.5,1407C 1705.41,1407.41 1706.41,1408.57 1706.5,1410.5C 1704.89,1418.48 1703.39,1426.48 1702,1434.5C 1700.64,1442.21 1696.14,1445.71 1688.5,1445C 1686.68,1443.2 1685.52,1441.03 1685,1438.5C 1683.8,1429.29 1685.47,1420.63 1690,1412.5C 1692.06,1410.27 1694.23,1408.27 1696.5,1406.5 Z"/></g>
<g><path style="opacity:1" fill="#4143a2" d="M 1812.5,1406.5 C 1815.19,1406.34 1817.85,1406.5 1820.5,1407C 1821.62,1407.84 1822.29,1409.01 1822.5,1410.5C 1820.73,1419.85 1818.9,1429.18 1817,1438.5C 1814.45,1442.06 1811.12,1444.39 1807,1445.5C 1804.25,1445.05 1802.58,1443.39 1802,1440.5C 1799.85,1430.72 1801.18,1421.39 1806,1412.5C 1808.06,1410.27 1810.23,1408.27 1812.5,1406.5 Z"/></g>
<g><path style="opacity:1" fill="#4144a2" d="M 1928.5,1406.5 C 1930.86,1406.34 1933.19,1406.5 1935.5,1407C 1937.41,1407.41 1938.41,1408.57 1938.5,1410.5C 1936.89,1418.48 1935.39,1426.48 1934,1434.5C 1932.64,1442.21 1928.14,1445.71 1920.5,1445C 1918.68,1443.2 1917.52,1441.03 1917,1438.5C 1915.8,1429.29 1917.47,1420.63 1922,1412.5C 1924.06,1410.27 1926.23,1408.27 1928.5,1406.5 Z"/></g>
<g><path style="opacity:1" fill="#4143a2" d="M 1983.5,1406.5 C 1986.19,1406.34 1988.85,1406.5 1991.5,1407C 1992.62,1407.84 1993.29,1409.01 1993.5,1410.5C 1991.73,1419.85 1989.9,1429.18 1988,1438.5C 1985.45,1442.06 1982.12,1444.39 1978,1445.5C 1975.25,1445.05 1973.58,1443.39 1973,1440.5C 1970.85,1430.72 1972.18,1421.39 1977,1412.5C 1979.06,1410.27 1981.23,1408.27 1983.5,1406.5 Z"/></g>
<g><path style="opacity:1" fill="#3e419d" d="M 2037.5,1407.5 C 2044.91,1406.74 2047.08,1409.74 2044,1416.5C 2040.68,1421.91 2035.85,1424.91 2029.5,1425.5C 2030.05,1418.5 2032.72,1412.5 2037.5,1407.5 Z"/></g>
<g><path style="opacity:1" fill="#4143a2" d="M 899.5,1409.5 C 904.539,1409.03 907.372,1411.36 908,1416.5C 909.555,1427.4 907.055,1437.23 900.5,1446C 897.454,1448.17 894.12,1448.84 890.5,1448C 888.59,1447.59 887.59,1446.43 887.5,1444.5C 889.133,1434.36 891.3,1424.36 894,1414.5C 895.73,1412.6 897.563,1410.93 899.5,1409.5 Z"/></g>
<g><path style="opacity:1" fill="#4144a2" d="M 1468.5,1409.5 C 1472.18,1408.73 1474.68,1410.06 1476,1413.5C 1478.68,1423.68 1477.34,1433.35 1472,1442.5C 1467.21,1449.27 1461.71,1450.11 1455.5,1445C 1457.39,1435.52 1459.22,1426.02 1461,1416.5C 1463.4,1413.93 1465.9,1411.6 1468.5,1409.5 Z"/></g>
<g><path style="opacity:1" fill="#202259" d="M 1628.5,1442.5 C 1628.5,1443.83 1628.5,1445.17 1628.5,1446.5C 1633.83,1446.5 1639.17,1446.5 1644.5,1446.5C 1639.02,1447.49 1633.36,1447.82 1627.5,1447.5C 1627.22,1445.59 1627.55,1443.92 1628.5,1442.5 Z"/></g>
</svg>
